<?xml version="1.0" encoding="UTF-8"?>
<svg id="Calque_1" data-name="Calque 1" xmlns="http://www.w3.org/2000/svg" viewBox="0 0 1080 412.96">
  <defs>
    <style>
      .cls-1 {
        fill: #f1ead8;
      }
    </style>
  </defs>
  <g>
    <path class="cls-1" d="M357.77,311.53c.02,17.59-13.4,30.13-29.7,30.22l-42.81.24c-11.67.06-23.4-6.17-28.34-17.56-31.47-72.62-34.63-153.19-11.38-228.79,1.83-5.96,5.09-10.65,9.93-12.98,5.28-2.55,11.9-1.71,17.23,1.65l58.81,37.11c13.23,8.35,26.03,20.29,26.06,37.82l.21,152.29Z"/>
    <g>
      <path class="cls-1" d="M224.27,303.41c3.28,9.74,4.03,18.08-1.51,27.09-3.54,5.76-12.47,11.42-21.44,11.42l-110.95.05c-14.98,0-30.49-11.55-30.51-27.8l-.22-132.44c0-4.67,3.01-10.36,5.76-12.38,3.17-2.33,10.67-3.62,14.05-2.02l28.66,13.6c26.69,12.67,51.6,27.27,71.55,49.05,19.88,21.71,34.96,44.79,44.63,73.44Z"/>
      <path class="cls-1" d="M152.07,180.5l-63.1-33.52c-4.86-2.58-8.47-6.51-9.2-11.8-.55-4.01,2.13-10.77,6.48-13.5l114.46-72.08c11.34-7.14,31.73,5.47,29.59,18.82-4.91,30.65-13.12,58.88-19.48,88.67-2.69,12.59-11.35,21.9-21.16,26.43-12.78,5.9-24.91,3.73-37.59-3.01Z"/>
    </g>
  </g>
  <g>
    <path class="cls-1" d="M488.34,132.18l-2.05,19.64c-.37-.6-.74-1.21-1.13-1.79-4.19-6.25-9.31-11.12-15.38-14.6-6.07-3.48-12.82-5.22-20.25-5.22-7.81,0-14.72,1.76-20.74,5.29-6.02,3.53-10.72,8.42-14.11,14.67-3.39,6.26-5.08,13.57-5.08,21.94s1.69,15.57,5.08,21.87c3.39,6.3,8.09,11.22,14.11,14.74,6.02,3.53,12.93,5.29,20.74,5.29s14.18-1.74,20.25-5.22c6.07-3.48,11.17-8.37,15.31-14.67.4-.62.79-1.25,1.17-1.89l2.07,19.8h18.91l-4.23-39.93,4.23-39.93h-18.91ZM479.52,186.29c-3.34,4.09-7.17,7.29-11.5,9.59-4.33,2.31-9.03,3.46-14.11,3.46s-9.41-1.15-13.26-3.46c-3.86-2.3-6.89-5.5-9.1-9.59-2.21-4.09-3.32-8.82-3.32-14.18s1.1-10.09,3.32-14.18c2.21-4.09,5.24-7.29,9.1-9.59,3.86-2.3,8.28-3.46,13.26-3.46s9.78,1.15,14.11,3.46c4.33,2.31,8.16,5.5,11.5,9.59,3.34,4.09,6,8.82,7.97,14.18-1.97,5.36-4.63,10.09-7.97,14.18Z"/>
    <rect class="cls-1" x="524.88" y="103.4" width="18.34" height="108.64"/>
    <path class="cls-1" d="M692.07,134.72c-4.99-3.01-11-4.51-18.06-4.51-6.3,0-12.02,1.58-17.14,4.73-5.13,3.15-9.31,7.64-12.56,13.47-.66,1.18-1.25,2.43-1.81,3.71-.49-1.57-1.06-3.06-1.72-4.48-2.59-5.59-6.35-9.9-11.29-12.91-4.94-3.01-10.93-4.51-17.99-4.51-6.4,0-12.16,1.58-17.28,4.73-5.13,3.15-9.31,7.64-12.56,13.47-.46.83-.9,1.7-1.31,2.58l-3.13-18.81h-18.34l4.8,26.1v53.75h18.34v-38.94c0-5.55.96-10.39,2.89-14.53,1.93-4.14,4.66-7.36,8.18-9.66,3.53-2.3,7.69-3.46,12.49-3.46,6.77,0,11.92,2.14,15.45,6.42,3.53,4.28,5.29,10.61,5.29,18.98v41.2h18.34v-38.94c0-5.55.96-10.39,2.89-14.53,1.93-4.14,4.66-7.36,8.18-9.66,3.53-2.3,7.69-3.46,12.49-3.46,6.77,0,11.92,2.14,15.45,6.42,3.53,4.28,5.29,10.61,5.29,18.98v41.2h18.34v-44.16c0-7.9-1.29-14.65-3.88-20.25-2.59-5.59-6.37-9.9-11.36-12.91Z"/>
    <path class="cls-1" d="M796.89,194.12c.4-.62.79-1.25,1.17-1.89l2.07,19.8h18.91l-4.23-39.93,4.23-39.93h-18.91l-2.05,19.64c-.37-.6-.74-1.21-1.13-1.79-4.19-6.25-9.31-11.12-15.38-14.6-6.07-3.48-12.82-5.22-20.25-5.22-7.81,0-14.72,1.76-20.74,5.29-6.02,3.53-10.72,8.42-14.11,14.67-3.39,6.26-5.08,13.57-5.08,21.94s1.69,15.57,5.08,21.87c3.39,6.3,8.09,11.22,14.11,14.74,6.02,3.53,12.93,5.29,20.74,5.29s14.18-1.74,20.25-5.22c6.07-3.48,11.17-8.37,15.31-14.67ZM779.82,195.88c-4.33,2.31-9.03,3.46-14.11,3.46s-9.41-1.15-13.26-3.46c-3.86-2.3-6.89-5.5-9.1-9.59-2.21-4.09-3.32-8.82-3.32-14.18s1.1-10.09,3.32-14.18c2.21-4.09,5.24-7.29,9.1-9.59,3.86-2.3,8.28-3.46,13.26-3.46s9.78,1.15,14.11,3.46c4.33,2.31,8.16,5.5,11.5,9.59,3.34,4.09,6,8.82,7.97,14.18-1.97,5.36-4.63,10.09-7.97,14.18-3.34,4.09-7.17,7.29-11.5,9.59Z"/>
    <path class="cls-1" d="M493.56,281.21c-3.58-7.24-8.63-12.86-15.17-16.86-6.54-4-14.27-6-23.21-6s-16.86,1.76-23.77,5.29c-6.91,3.53-12.32,8.42-16.22,14.67-3.9,6.26-5.86,13.52-5.86,21.8s2.07,15.71,6.21,22.01c4.14,6.3,9.83,11.22,17.07,14.74,7.24,3.53,15.52,5.29,24.83,5.29,7.24,0,14.37-1.08,21.37-3.25,7.01-2.16,12.96-5.13,17.85-8.89v-13.26c-4.89,3.48-10.54,6.19-16.93,8.11-6.4,1.93-12.65,2.89-18.76,2.89-6.77,0-12.63-1.15-17.57-3.46-4.94-2.3-8.75-5.62-11.43-9.95-1.43-2.31-2.47-4.85-3.13-7.62h70.08c0-9.78-1.79-18.29-5.36-25.54ZM440.73,275.99c4-2.16,8.68-3.25,14.04-3.25,5.08,0,9.47,1.01,13.19,3.03,3.71,2.02,6.68,4.92,8.89,8.68,1.44,2.45,2.46,5.23,3.09,8.32h-51.39c.55-2.82,1.48-5.38,2.81-7.69,2.26-3.9,5.38-6.94,9.38-9.1Z"/>
    <polygon class="cls-1" points="479.6 227.46 461.25 227.46 444.04 251.73 461.68 251.73 479.6 227.46"/>
    <path class="cls-1" d="M584.28,262.87c-5.27-3.01-11.66-4.51-19.19-4.51-6.77,0-12.89,1.58-18.34,4.73-5.46,3.15-9.92,7.64-13.4,13.47-.57.96-1.09,1.96-1.6,2.99l-3.2-19.21h-18.34l4.8,26.1v53.75h18.34v-38.94c0-5.55,1.06-10.39,3.17-14.53,2.12-4.14,5.13-7.36,9.03-9.66,3.9-2.3,8.44-3.46,13.61-3.46,7.52,0,13.24,2.14,17.14,6.42,3.9,4.28,5.85,10.61,5.85,18.98v41.2h18.34v-44.16c0-7.9-1.39-14.65-4.16-20.25-2.78-5.59-6.8-9.9-12.06-12.91Z"/>
    <path class="cls-1" d="M698.56,281.21c-3.58-7.24-8.63-12.86-15.17-16.86-6.54-4-14.27-6-23.21-6s-16.86,1.76-23.77,5.29c-6.91,3.53-12.32,8.42-16.22,14.67-3.9,6.26-5.86,13.52-5.86,21.8s2.07,15.71,6.21,22.01c4.14,6.3,9.83,11.22,17.07,14.74,7.24,3.53,15.52,5.29,24.83,5.29,7.24,0,14.37-1.08,21.37-3.25,7.01-2.16,12.96-5.13,17.85-8.89v-13.26c-4.89,3.48-10.54,6.19-16.93,8.11-6.4,1.93-12.65,2.89-18.76,2.89-6.77,0-12.63-1.15-17.57-3.46-4.94-2.3-8.75-5.62-11.43-9.95-1.43-2.31-2.47-4.85-3.13-7.62h70.08c0-9.78-1.79-18.29-5.36-25.54ZM645.72,275.99c4-2.16,8.68-3.25,14.04-3.25,5.08,0,9.47,1.01,13.19,3.03,3.71,2.02,6.68,4.92,8.89,8.68,1.44,2.45,2.46,5.23,3.09,8.32h-51.39c.55-2.82,1.48-5.38,2.81-7.69,2.26-3.9,5.38-6.94,9.38-9.1Z"/>
    <path class="cls-1" d="M767.83,258.36c-5.36,0-10.07,1.04-14.11,3.1-4.04,2.07-7.46,4.94-10.23,8.61-2.67,3.53-4.76,7.65-6.3,12.35l-3.64-22.08h-18.34l4.8,25.54v54.32h18.34v-36.12c0-6.49,1.15-11.97,3.46-16.44,2.3-4.47,5.48-7.83,9.52-10.09,4.04-2.26,8.65-3.39,13.83-3.39,2.16,0,4.47.14,6.91.42,2.44.28,4.7.71,6.77,1.27v-16.08c-1.51-.47-3.25-.82-5.22-1.06-1.97-.23-3.9-.35-5.78-.35Z"/>
    <path class="cls-1" d="M860.1,278.39c-.39-.54-.78-1.08-1.2-1.62-2.59-3.34-5.74-6.39-9.45-9.17-3.72-2.77-7.9-5.01-12.56-6.7-4.66-1.69-9.71-2.54-15.17-2.54-7.34,0-13.92,1.58-19.75,4.73-5.83,3.15-10.44,7.55-13.83,13.19-3.39,5.64-5.08,12.27-5.08,19.89s1.69,14.25,5.08,19.89c3.39,5.64,7.99,10.04,13.83,13.19,5.83,3.15,12.42,4.73,19.75,4.73,6.77,0,12.93-1.25,18.48-3.74,5.55-2.49,10.32-5.67,14.32-9.52,2.12-2.04,3.97-4.16,5.57-6.35v6.21c0,9.78-2.82,17.31-8.47,22.57-5.64,5.27-13.83,7.9-24.55,7.9-6.12,0-12.23-.92-18.34-2.75-6.12-1.83-12.04-5.01-17.78-9.52v15.24c5.64,3.86,11.47,6.72,17.49,8.61,6.02,1.88,12.6,2.82,19.75,2.82,9.78,0,18.43-1.74,25.96-5.22,7.52-3.48,13.45-8.68,17.78-15.59,4.32-6.91,6.49-15.5,6.49-25.75v-58.55h-18.34v18.06ZM845.78,314.65c-5.6,3.86-11.73,5.78-18.41,5.78-5.46,0-10.11-1.03-13.97-3.1-3.86-2.07-6.8-4.94-8.82-8.61-2.02-3.67-3.03-7.85-3.03-12.56s1.01-9.03,3.03-12.7c2.02-3.67,4.96-6.54,8.82-8.61,3.86-2.07,8.51-3.1,13.97-3.1,6.68,0,12.81,1.9,18.41,5.71,5.59,3.81,10.6,10.04,15.03,18.69-4.42,8.46-9.43,14.63-15.03,18.48Z"/>
    <path class="cls-1" d="M915.33,231.76c-2.21-1.93-5.1-2.89-8.68-2.89s-6.35.97-8.61,2.89c-2.26,1.93-3.39,4.44-3.39,7.55s1.13,5.62,3.39,7.55c2.26,1.93,5.13,2.89,8.61,2.89s6.47-.96,8.68-2.89c2.21-1.93,3.32-4.44,3.32-7.55s-1.11-5.62-3.32-7.55Z"/>
    <polygon class="cls-1" points="897.49 259.77 897.49 340.19 915.83 340.19 915.83 259.77 906.66 261.46 897.49 259.77"/>
    <path class="cls-1" d="M982.42,327.77c-6.77,0-12.63-1.15-17.57-3.46-4.94-2.3-8.75-5.62-11.43-9.95-1.43-2.31-2.47-4.85-3.13-7.62h70.08c0-9.78-1.79-18.29-5.36-25.54-3.58-7.24-8.63-12.86-15.17-16.86-6.54-4-14.27-6-23.21-6s-16.86,1.76-23.77,5.29c-6.91,3.53-12.32,8.42-16.22,14.67-3.9,6.26-5.86,13.52-5.86,21.8s2.07,15.71,6.21,22.01c4.14,6.3,9.83,11.22,17.07,14.74,7.24,3.53,15.52,5.29,24.83,5.29,7.24,0,14.37-1.08,21.37-3.25,7.01-2.16,12.96-5.13,17.85-8.89v-13.26c-4.89,3.48-10.54,6.19-16.93,8.11-6.4,1.93-12.65,2.89-18.76,2.89ZM962.17,275.99c4-2.16,8.68-3.25,14.04-3.25,5.08,0,9.47,1.01,13.19,3.03,3.71,2.02,6.68,4.92,8.89,8.68,1.44,2.45,2.46,5.23,3.09,8.32h-51.39c.55-2.82,1.48-5.38,2.81-7.69,2.26-3.9,5.38-6.94,9.38-9.1Z"/>
  </g>
</svg>