<svg width="118" height="19" viewBox="0 0 118 19" fill="none" xmlns="http://www.w3.org/2000/svg">
<path d="M112.903 18.188H117.999L112.741 0.813061L105.499 0.812766L100.24 18.1877H105.338L106.267 14.9714H111.969L112.903 18.1877M107.37 11.1079L109.105 5.10496H109.135L110.869 11.1079H107.37ZM25.4421 18.4996C30.6753 18.4996 33.2049 17.5766 33.5633 12.8489C33.6488 11.724 33.665 10.5691 33.665 9.49845C33.6665 8.43153 33.6488 7.27542 33.5633 6.15061C33.2049 1.42146 30.6753 0.5 25.4421 0.5C20.209 0.5 17.6809 1.42146 17.3239 6.15061C17.2369 7.27542 17.2192 8.43153 17.2192 9.49845C17.2207 10.5691 17.2369 11.724 17.3239 12.8489C17.6809 17.5766 20.209 18.4996 25.4421 18.4996ZM22.1515 9.49845C22.1515 8.54435 22.1751 7.9804 22.1957 7.5619C22.3285 4.88005 23.386 4.56744 25.4421 4.56744C27.4997 4.56744 28.5572 4.88005 28.6885 7.5619C28.7092 7.98025 28.7342 8.5442 28.7342 9.49845C28.7342 10.4557 28.7092 11.0206 28.6885 11.4381C28.5572 14.1204 27.4997 14.4336 25.4421 14.4336C23.386 14.4336 22.3285 14.1204 22.1957 11.4381C22.1751 11.0206 22.1515 10.4557 22.1515 9.49845ZM0.00195312 0.82074V5.15206H5.1897V18.1954H10.3794V5.15206H15.5672V0.82074H0.00195312ZM79.6279 18.188V0.812766H74.703V18.188H79.6279ZM59.8117 7.15654V0.812766H54.9148V18.188H59.8117V11.4879H65.5021V18.188H70.3975V0.812766H65.5021V7.15654H59.8117ZM95.8259 9.10668C98.0074 8.54834 98.6475 7.24367 98.6475 5.35792C98.6475 1.53931 96.2478 0.812618 92.8362 0.812618H83.9938V18.1875H93.2742C97.5472 18.1875 98.9838 16.3446 98.9838 13.5101C98.9838 11.5338 98.5325 9.7901 95.8259 9.10624M88.8892 11.0509H92.2845C93.6562 11.0509 93.9424 11.6525 93.9424 12.631C93.9424 13.6103 93.4055 14.2136 92.2845 14.2136H88.8892V11.0509ZM88.8892 4.78599H92.2845C93.171 4.78599 93.7197 5.207 93.7197 6.21957C93.7197 7.08758 93.1769 7.62185 92.2845 7.62185H88.8892V4.78599ZM36.5191 12.486H41.1874C41.1918 13.3289 41.2995 13.8922 41.708 14.2034C42.1726 14.5539 42.5886 14.6697 43.9677 14.6697C45.2951 14.6697 46.7495 14.6697 46.7495 13.0328C46.7495 11.7419 45.9367 11.4473 44.4367 11.3672C40.7169 11.1699 39.3717 11.0646 37.9867 10.0345C37.0427 9.33203 36.553 7.96445 36.553 6.11502C36.553 2.97008 37.6489 1.86684 39.2301 1.09703C40.8614 0.302417 47.2642 0.302417 48.987 1.09703C51.1537 2.09647 51.2171 4.26013 51.2171 6.26712H46.5607C46.5518 5.24392 46.3217 4.95492 46.1344 4.76458C45.6506 4.33515 44.9618 4.24448 43.9677 4.24448C42.7641 4.24448 41.3717 4.29882 41.3717 5.76209C41.3717 6.87848 41.854 7.34512 43.1196 7.42722C44.8585 7.53857 48.2849 7.64829 49.5062 8.3698C51.2186 9.38386 51.6626 10.756 51.6626 12.9947C51.6626 16.2299 50.5062 17.1794 48.897 17.8912C47.04 18.7122 40.8378 18.7122 38.8215 17.8277C36.5648 16.8427 36.5191 14.8796 36.5191 12.486Z" fill="white"/>
</svg>
