<?xml version="1.0" encoding="UTF-8"?>
<svg id="Calque_1" data-name="Calque 1" xmlns="http://www.w3.org/2000/svg" viewBox="0 0 1080 446.48">
  <defs>
    <style>
      .cls-1 {
        fill: #416fef;
      }
    </style>
  </defs>
  <g>
    <path class="cls-1" d="M356.49,328.47c.02,17.72-13.49,30.34-29.91,30.44l-43.11.24c-11.75.06-23.57-6.21-28.54-17.68-31.69-73.13-34.88-154.27-11.46-230.4,1.85-6,5.13-10.72,10-13.07,5.31-2.57,11.99-1.73,17.35,1.66l59.22,37.37c13.32,8.41,26.21,20.44,26.24,38.08l.21,153.36Z"/>
    <g>
      <path class="cls-1" d="M222.06,320.29c3.31,9.81,4.05,18.21-1.52,27.28-3.57,5.8-12.56,11.5-21.59,11.5l-111.73.05c-15.08,0-30.7-11.63-30.73-28l-.23-133.37c0-4.71,3.03-10.43,5.8-12.47,3.19-2.35,10.75-3.65,14.15-2.03l28.86,13.7c26.88,12.76,51.96,27.46,72.05,49.39,20.02,21.86,35.21,45.11,44.94,73.96Z"/>
      <path class="cls-1" d="M149.34,196.52l-63.54-33.76c-4.9-2.6-8.53-6.56-9.27-11.89-.56-4.04,2.15-10.84,6.52-13.6l115.26-72.59c11.42-7.19,31.95,5.51,29.8,18.96-4.94,30.86-13.22,59.3-19.62,89.29-2.71,12.68-11.43,22.06-21.3,26.62-12.87,5.94-25.08,3.75-37.85-3.03Z"/>
    </g>
  </g>
  <g>
    <path class="cls-1" d="M487.98,148.98l-2.06,19.77c-.37-.61-.74-1.21-1.13-1.8-4.22-6.3-9.38-11.2-15.49-14.71-6.11-3.5-12.91-5.26-20.39-5.26-7.86,0-14.82,1.78-20.88,5.33-6.06,3.55-10.8,8.48-14.21,14.78-3.41,6.3-5.11,13.66-5.11,22.09s1.7,15.68,5.11,22.02c3.41,6.35,8.14,11.29,14.21,14.85,6.06,3.55,13.02,5.33,20.88,5.33s14.28-1.75,20.39-5.26c6.11-3.5,11.25-8.43,15.41-14.78.41-.62.79-1.26,1.18-1.9l2.09,19.94h19.04l-4.26-40.21,4.26-40.21h-19.04ZM479.1,203.46c-3.36,4.12-7.22,7.34-11.58,9.66-4.36,2.32-9.09,3.48-14.21,3.48s-9.47-1.16-13.36-3.48c-3.88-2.32-6.94-5.54-9.16-9.66-2.23-4.12-3.34-8.88-3.34-14.28s1.11-10.16,3.34-14.28c2.22-4.12,5.28-7.34,9.16-9.66,3.88-2.32,8.33-3.48,13.36-3.48s9.85,1.16,14.21,3.48c4.36,2.32,8.22,5.54,11.58,9.66,3.36,4.12,6.04,8.88,8.03,14.28-1.99,5.4-4.67,10.16-8.03,14.28Z"/>
    <rect class="cls-1" x="524.78" y="119.99" width="18.47" height="109.4"/>
    <path class="cls-1" d="M693.13,151.53c-5.02-3.03-11.08-4.55-18.19-4.55-6.35,0-12.1,1.59-17.26,4.76-5.16,3.17-9.38,7.7-12.64,13.57-.66,1.19-1.26,2.44-1.82,3.73-.49-1.58-1.07-3.08-1.73-4.51-2.61-5.63-6.39-9.97-11.37-13-4.97-3.03-11.01-4.55-18.11-4.55-6.44,0-12.24,1.59-17.4,4.76-5.16,3.17-9.38,7.7-12.64,13.57-.47.84-.9,1.71-1.32,2.6l-3.16-18.94h-18.47l4.83,26.28v54.13h18.47v-39.21c0-5.59.97-10.47,2.91-14.63,1.94-4.17,4.69-7.41,8.24-9.73,3.55-2.32,7.74-3.48,12.57-3.48,6.82,0,12.01,2.16,15.56,6.46,3.55,4.31,5.33,10.68,5.33,19.11v41.49h18.47v-39.21c0-5.59.97-10.47,2.91-14.63,1.94-4.17,4.69-7.41,8.24-9.73,3.55-2.32,7.74-3.48,12.57-3.48,6.82,0,12.01,2.16,15.56,6.46,3.55,4.31,5.33,10.68,5.33,19.11v41.49h18.47v-44.47c0-7.96-1.3-14.75-3.91-20.39-2.61-5.63-6.42-9.97-11.44-13Z"/>
    <path class="cls-1" d="M798.7,211.35c.41-.62.79-1.26,1.18-1.9l2.09,19.94h19.04l-4.26-40.21,4.26-40.21h-19.04l-2.06,19.77c-.37-.61-.74-1.21-1.13-1.8-4.22-6.3-9.38-11.2-15.49-14.71-6.11-3.5-12.91-5.26-20.39-5.26-7.86,0-14.82,1.78-20.88,5.33-6.06,3.55-10.8,8.48-14.21,14.78-3.41,6.3-5.11,13.66-5.11,22.09s1.7,15.68,5.11,22.02c3.41,6.35,8.14,11.29,14.21,14.85,6.06,3.55,13.02,5.33,20.88,5.33s14.28-1.75,20.39-5.26c6.11-3.5,11.25-8.43,15.41-14.78ZM781.5,213.12c-4.36,2.32-9.09,3.48-14.21,3.48s-9.47-1.16-13.36-3.48c-3.88-2.32-6.94-5.54-9.16-9.66-2.23-4.12-3.34-8.88-3.34-14.28s1.11-10.16,3.34-14.28c2.22-4.12,5.28-7.34,9.16-9.66,3.88-2.32,8.33-3.48,13.36-3.48s9.85,1.16,14.21,3.48c4.36,2.32,8.22,5.54,11.58,9.66,3.36,4.12,6.04,8.88,8.03,14.28-1.99,5.4-4.67,10.16-8.03,14.28-3.36,4.12-7.22,7.34-11.58,9.66Z"/>
    <path class="cls-1" d="M493.24,299.05c-3.6-7.29-8.69-12.95-15.27-16.98-6.58-4.03-14.37-6.04-23.37-6.04s-16.98,1.78-23.94,5.33c-6.96,3.55-12.41,8.48-16.34,14.78-3.93,6.3-5.9,13.62-5.9,21.95s2.08,15.82,6.25,22.16c4.17,6.35,9.9,11.29,17.19,14.85,7.29,3.55,15.63,5.33,25.01,5.33,7.29,0,14.47-1.09,21.52-3.27,7.06-2.18,13.05-5.16,17.97-8.95v-13.35c-4.93,3.51-10.61,6.23-17.05,8.17-6.44,1.94-12.74,2.91-18.9,2.91-6.82,0-12.72-1.16-17.69-3.48-4.97-2.32-8.81-5.66-11.51-10.02-1.44-2.32-2.48-4.89-3.16-7.67h70.57c0-9.85-1.8-18.42-5.4-25.72ZM440.03,293.79c4.02-2.18,8.74-3.27,14.14-3.27,5.11,0,9.54,1.02,13.28,3.06,3.74,2.04,6.72,4.95,8.95,8.74,1.45,2.47,2.48,5.27,3.11,8.38h-51.76c.55-2.83,1.49-5.42,2.83-7.74,2.27-3.93,5.42-6.98,9.45-9.16Z"/>
    <polygon class="cls-1" points="479.17 244.92 460.7 244.92 443.37 269.36 461.13 269.36 479.17 244.92"/>
    <path class="cls-1" d="M584.59,280.58c-5.31-3.03-11.75-4.55-19.32-4.55-6.82,0-12.98,1.59-18.47,4.76-5.49,3.17-9.99,7.7-13.5,13.57-.58.96-1.1,1.97-1.61,3.01l-3.22-19.35h-18.47l4.83,26.28v54.13h18.47v-39.21c0-5.59,1.07-10.47,3.2-14.63,2.13-4.17,5.16-7.41,9.09-9.73,3.93-2.32,8.5-3.48,13.71-3.48,7.58,0,13.33,2.16,17.26,6.46,3.93,4.31,5.9,10.68,5.9,19.11v41.49h18.47v-44.47c0-7.96-1.4-14.75-4.19-20.39-2.8-5.63-6.84-9.97-12.15-13Z"/>
    <path class="cls-1" d="M699.67,299.05c-3.6-7.29-8.69-12.95-15.27-16.98-6.58-4.03-14.37-6.04-23.37-6.04s-16.98,1.78-23.94,5.33c-6.96,3.55-12.41,8.48-16.34,14.78-3.93,6.3-5.9,13.62-5.9,21.95s2.08,15.82,6.25,22.16c4.17,6.35,9.9,11.29,17.19,14.85,7.29,3.55,15.63,5.33,25.01,5.33,7.29,0,14.47-1.09,21.52-3.27,7.06-2.18,13.05-5.16,17.97-8.95v-13.35c-4.93,3.51-10.61,6.23-17.05,8.17-6.44,1.94-12.74,2.91-18.9,2.91-6.82,0-12.72-1.16-17.69-3.48-4.97-2.32-8.81-5.66-11.51-10.02-1.44-2.32-2.48-4.89-3.16-7.67h70.57c0-9.85-1.8-18.42-5.4-25.72ZM646.46,293.79c4.02-2.18,8.74-3.27,14.14-3.27,5.11,0,9.54,1.02,13.28,3.06,3.74,2.04,6.72,4.95,8.95,8.74,1.45,2.47,2.48,5.27,3.11,8.38h-51.76c.55-2.83,1.49-5.42,2.83-7.74,2.27-3.93,5.42-6.98,9.45-9.16Z"/>
    <path class="cls-1" d="M769.43,276.04c-5.4,0-10.14,1.04-14.21,3.13-4.07,2.08-7.51,4.97-10.3,8.67-2.69,3.55-4.8,7.7-6.35,12.43l-3.67-22.24h-18.47l4.83,25.72v54.7h18.47v-36.37c0-6.54,1.16-12.05,3.48-16.55,2.32-4.5,5.52-7.89,9.59-10.16,4.07-2.27,8.71-3.41,13.92-3.41,2.18,0,4.5.14,6.96.43,2.46.28,4.74.71,6.82,1.28v-16.2c-1.52-.47-3.27-.83-5.26-1.07-1.99-.24-3.93-.36-5.83-.36Z"/>
    <path class="cls-1" d="M862.35,296.21c-.39-.54-.79-1.09-1.21-1.63-2.61-3.36-5.78-6.44-9.52-9.23-3.74-2.79-7.96-5.04-12.64-6.75-4.69-1.7-9.78-2.56-15.27-2.56-7.39,0-14.02,1.59-19.89,4.76-5.87,3.17-10.51,7.6-13.92,13.28-3.41,5.68-5.11,12.36-5.11,20.03s1.71,14.35,5.11,20.03c3.41,5.68,8.05,10.11,13.92,13.28,5.87,3.17,12.5,4.76,19.89,4.76,6.82,0,13.02-1.25,18.61-3.76,5.59-2.51,10.39-5.71,14.42-9.59,2.13-2.06,4-4.19,5.61-6.39v6.25c0,9.85-2.84,17.43-8.52,22.73-5.68,5.3-13.92,7.96-24.72,7.96-6.16,0-12.31-.92-18.47-2.77-6.16-1.85-12.13-5.04-17.9-9.59v15.34c5.68,3.88,11.55,6.77,17.62,8.67,6.06,1.89,12.69,2.84,19.89,2.84,9.85,0,18.56-1.75,26.14-5.26,7.58-3.51,13.54-8.74,17.9-15.7,4.36-6.96,6.54-15.6,6.54-25.93v-58.96h-18.47v18.18ZM847.93,332.72c-5.64,3.88-11.82,5.83-18.54,5.83-5.49,0-10.18-1.04-14.07-3.13-3.89-2.08-6.84-4.97-8.88-8.67-2.04-3.69-3.05-7.91-3.05-12.64s1.02-9.09,3.05-12.79c2.04-3.69,4.99-6.58,8.88-8.67,3.88-2.08,8.57-3.13,14.07-3.13,6.72,0,12.9,1.92,18.54,5.75,5.63,3.84,10.68,10.11,15.13,18.83-4.45,8.52-9.5,14.73-15.13,18.61Z"/>
    <path class="cls-1" d="M917.97,249.25c-2.23-1.94-5.14-2.91-8.74-2.91s-6.39.97-8.67,2.91c-2.27,1.94-3.41,4.48-3.41,7.6s1.14,5.66,3.41,7.6c2.27,1.94,5.16,2.91,8.67,2.91s6.51-.97,8.74-2.91c2.22-1.94,3.34-4.48,3.34-7.6s-1.11-5.66-3.34-7.6Z"/>
    <polygon class="cls-1" points="900 277.46 900 358.44 918.47 358.44 918.47 277.46 909.23 279.16 900 277.46"/>
    <path class="cls-1" d="M985.52,345.94c-6.82,0-12.72-1.16-17.69-3.48-4.97-2.32-8.81-5.66-11.51-10.02-1.44-2.32-2.48-4.89-3.16-7.67h70.57c0-9.85-1.8-18.42-5.4-25.72-3.6-7.29-8.69-12.95-15.27-16.98-6.58-4.03-14.37-6.04-23.37-6.04s-16.98,1.78-23.94,5.33c-6.96,3.55-12.41,8.48-16.34,14.78-3.93,6.3-5.9,13.62-5.9,21.95s2.08,15.82,6.25,22.16c4.17,6.35,9.9,11.29,17.19,14.85,7.29,3.55,15.63,5.33,25.01,5.33,7.29,0,14.47-1.09,21.52-3.27,7.06-2.18,13.05-5.16,17.97-8.95v-13.35c-4.93,3.51-10.61,6.23-17.05,8.17-6.44,1.94-12.74,2.91-18.9,2.91ZM965.14,293.79c4.02-2.18,8.74-3.27,14.14-3.27,5.11,0,9.54,1.02,13.28,3.06,3.74,2.04,6.72,4.95,8.95,8.74,1.45,2.47,2.48,5.27,3.11,8.38h-51.76c.55-2.83,1.49-5.42,2.83-7.74,2.27-3.93,5.42-6.98,9.45-9.16Z"/>
  </g>
</svg>