<svg width="115" height="35" viewBox="0 0 115 35" fill="none" xmlns="http://www.w3.org/2000/svg">
<path d="M13.6426 33.7042H1.02734L7.31758 22.8123H19.9328" fill="currentColor"/>
<path d="M26.2229 33.7042H38.8048L32.5145 22.8123H19.9326" fill="currentColor"/>
<path d="M26.2231 11.9173L19.9328 1.02539L13.6426 11.9159L19.9328 22.8122" fill="currentColor"/>
<path d="M44.4645 29.0644H49.5237V27.2421H44.4631V24.9931H50.1551V23.165H42.334V33.7041H50.2884V31.876H44.4631" fill="currentColor"/>
<path d="M44.3303 13.5747L46.5608 21.4092H48.6247L50.8552 13.5747V21.4092H52.8525V10.873H49.7892L47.5935 18.2679L45.3963 10.873H42.333V21.4092H44.3317" fill="currentColor"/>
<path d="M90.7627 21.4092H92.8932V10.873H90.7641V21.4092H90.7627Z" fill="currentColor"/>
<path d="M92.4941 33.7041H94.6247V23.165H92.4956V33.7041H92.4941Z" fill="currentColor"/>
<path d="M111.799 21.4092H113.929V10.873H111.8V21.4092H111.799Z" fill="currentColor"/>
<path d="M53.6836 21.4092H55.8127V10.873H53.6836V21.4092Z" fill="currentColor"/>
<path d="M108.837 14.9819H104.611V10.873H102.514V21.4092H104.611V16.8057H108.837V21.4092H110.901V10.873H108.837" fill="currentColor"/>
<path d="M58.9778 21.4092H61.1402V12.6939H63.7038V10.873H56.3809V12.6954H58.9763" fill="currentColor"/>
<path d="M78.3473 33.7041H80.5112V24.9931H83.1081V23.165H75.7852V24.9931H78.3488" fill="currentColor"/>
<path d="M76.917 21.7014C79.6139 21.7014 81.1115 20.472 81.1115 18.1146V10.8745H78.9824V18.3127C78.9824 19.221 78.2147 19.9759 76.917 19.9759C75.2862 19.9759 74.8198 19.0807 74.8198 18.3127V10.873H72.7559V18.116C72.7559 20.6514 74.3201 21.7028 76.917 21.7028" fill="currentColor"/>
<path d="M60.8395 29.0644H65.8653V27.2421H60.8395V24.9931H66.4983V23.165H58.709V33.7041H66.6648V31.876H60.8395" fill="currentColor"/>
<path d="M86.6367 12.5449C87.2016 12.5449 87.8679 13.083 87.8679 13.7916C87.8697 13.9695 87.8355 14.146 87.7671 14.3103C87.6988 14.4746 87.5978 14.6233 87.4703 14.7475C87.3428 14.8718 87.1914 14.9689 87.0252 15.033C86.859 15.0972 86.6815 15.127 86.5035 15.1208H83.9732V12.5449H86.6367ZM86.4702 19.814H83.9732V16.7594H86.4354C87.3349 16.7594 88.0677 17.2685 88.0677 18.2925C88.0677 19.1559 87.4015 19.814 86.4702 19.814ZM84.0398 21.4092H87.1031C89.099 21.4092 90.2649 20.2233 90.2649 18.56C90.2649 17.2222 89.2988 16.0724 88.2343 15.8049C89.1656 15.5735 89.8985 14.6261 89.8985 13.4619C89.8985 11.91 88.7673 10.873 86.6367 10.873H81.876V21.4092" fill="currentColor"/>
<path d="M85.7717 27.8438V24.9773H88.3339C89.1986 24.9773 89.7649 25.5847 89.7649 26.4163C89.7649 27.005 89.2652 27.8453 88.4005 27.8453H85.7703L85.7717 27.8438ZM89.9981 28.6451C90.8961 28.3732 91.8621 27.5603 91.8621 26.0996C91.8621 24.2252 90.5962 23.1506 88.4338 23.1506H83.6064V33.6868H85.7703V29.536H87.5677C88.667 29.536 89.2652 30.1044 89.4318 30.855C89.6316 31.6837 89.5983 32.9159 89.7982 33.6868H91.9621C91.7622 32.8798 91.6289 31.7835 91.5623 30.9186C91.4957 29.4926 90.7295 28.9213 89.9981 28.6451Z" fill="currentColor"/>
<path d="M53.1174 23.165H50.9883V33.7041H58.078V31.876H53.1174" fill="currentColor"/>
<path d="M67.2981 16.9561C68.9955 17.2512 69.9602 17.5708 69.9602 18.5904C69.9602 19.2788 69.2939 19.9369 67.8629 19.9369C66.4319 19.9369 65.6991 19.1328 65.6991 18.1724H63.6699C63.6699 20.0063 64.8692 21.6782 67.9643 21.6782C70.8929 21.6782 72.1921 20.1206 72.1921 18.3417C72.1921 16.6784 71.0928 15.6255 69.1621 15.2408C67.2648 14.8749 66.0003 14.7983 66.0003 13.6123C66.0003 12.7981 66.7332 12.3121 67.8977 12.3121C69.0955 12.3121 69.795 12.9138 69.795 13.9247H71.859C71.859 12.2615 70.5945 10.5505 67.7978 10.5505C65.8671 10.5505 63.8698 11.6642 63.8698 13.7468C63.8698 15.4968 65.1357 16.5801 67.2995 16.9561" fill="currentColor"/>
<path d="M97.0216 16.9561C98.7524 17.2512 99.717 17.5708 99.717 18.5904C99.717 19.2788 99.0189 19.9369 97.6212 19.9369C96.1888 19.9369 95.4574 19.1328 95.4574 18.1724H93.4268C93.4268 20.0063 94.5912 21.6782 97.7212 21.6782C100.65 21.6782 101.947 20.1206 101.947 18.3417C101.947 16.6784 100.85 15.6255 98.8856 15.2408C97.0216 14.8749 95.7239 14.7983 95.7239 13.6123C95.7239 12.7981 96.4886 12.3121 97.6212 12.3121C98.8523 12.3121 99.5504 12.9138 99.5504 13.9247H101.614C101.614 12.2615 100.35 10.5505 97.5546 10.5505C95.6239 10.5505 93.5933 11.6642 93.5933 13.7468C93.5933 15.4968 94.8911 16.5801 97.0216 16.9561Z" fill="currentColor"/>
<path d="M71.4581 32.0755C69.7606 32.0755 68.7627 30.3935 68.7627 28.3889C68.7627 26.3844 69.7273 24.7038 71.4581 24.7038C72.7906 24.7038 73.4569 25.5108 73.7219 26.5044H75.9524C75.5859 24.4406 73.9884 22.9119 71.4248 22.9119C68.1964 22.9119 66.5322 25.3778 66.5322 28.4164C66.5322 31.4637 68.263 33.9296 71.4248 33.9296C73.9551 33.9296 75.6526 32.4617 75.9524 30.2069H73.7219C73.4554 31.267 72.7558 32.0755 71.4581 32.0755Z" fill="currentColor"/>
<path d="M100.083 32.0755C98.3523 32.0755 97.3544 30.3935 97.3544 28.3889C97.3544 26.3844 98.319 24.7038 100.083 24.7038C101.381 24.7038 102.047 25.5108 102.347 26.5044H104.544C104.178 24.4406 102.58 22.9119 100.016 22.9119C96.7881 22.9119 95.1572 25.3778 95.1572 28.4164C95.1572 31.4637 96.8547 33.9296 100.016 33.9296C102.547 33.9296 104.244 32.4617 104.577 30.2069H102.347C102.047 31.267 101.348 32.0755 100.083 32.0755Z" fill="currentColor"/>
</svg>
