<svg xmlns="http://www.w3.org/2000/svg" viewBox="40 50 330 330">
  <path fill="#416fef" d="M356.49,328.47c.02,17.72-13.49,30.34-29.91,30.44l-43.11.24c-11.75.06-23.57-6.21-28.54-17.68-31.69-73.13-34.88-154.27-11.46-230.4,1.85-6,5.13-10.72,10-13.07,5.31-2.57,11.99-1.73,17.35,1.66l59.22,37.37c13.32,8.41,26.21,20.44,26.24,38.08l.21,153.36Z"/>
  <path fill="#416fef" d="M222.06,320.29c3.31,9.81,4.05,18.21-1.52,27.28-3.57,5.8-12.56,11.5-21.59,11.5l-111.73.05c-15.08,0-30.7-11.63-30.73-28l-.23-133.37c0-4.71,3.03-10.43,5.8-12.47,3.19-2.35,10.75-3.65,14.15-2.03l28.86,13.7c26.88,12.76,51.96,27.46,72.05,49.39,20.02,21.86,35.21,45.11,44.94,73.96Z"/>
  <path fill="#416fef" d="M149.34,196.52l-63.54-33.76c-4.9-2.6-8.53-6.56-9.27-11.89-.56-4.04,2.15-10.84,6.52-13.6l115.26-72.59c11.42-7.19,31.95,5.51,29.8,18.96-4.94,30.86-13.22,59.3-19.62,89.29-2.71,12.68-11.43,22.06-21.3,26.62-12.87,5.94-25.08,3.75-37.85-3.03Z"/>
</svg>
